<svg id="Layer_1" data-name="Layer 1" xmlns="http://www.w3.org/2000/svg" viewBox="0 0 128 128"><defs><style>.cls-1{fill:#006837;}</style></defs><title>Artboard 1</title><path class="cls-1" d="M19.36,38.67c-5.09-1.36-11.68,1.16-13.25,6.56C4.33,51.38,12.2,55.08,16.7,56.86l-.36-2.74-4.81,3.53C10.44,58.45,8,59.58,8,61.18s1.79,2.61,2.85,3.36a16.75,16.75,0,0,0,4.63,2.27l-.66-2.5C13,66,10.57,66.81,8.83,68.57a11.76,11.76,0,0,0-2.93,7c-.34,2.61.69,4.45,3.25,5.24a20.62,20.62,0,0,0,8.59.69c1.9-.24,1.92-3.24,0-3a19,19,0,0,1-6.76-.3c-.67-.16-1.86-.29-2.15-1.05a5.74,5.74,0,0,1,.31-2.74,7.2,7.2,0,0,1,3-4.64,33.87,33.87,0,0,0,4.76-3.29,1.52,1.52,0,0,0-.66-2.51,14.17,14.17,0,0,1-3.09-1.42,14.84,14.84,0,0,1-1.32-.92l-.6-.52a3.83,3.83,0,0,1-.29-.28c-.19-.18-.19-.18,0,0l-.15,1.16c.21-.42,1.12-.85,1.51-1.14l1.93-1.41,3.66-2.68A1.52,1.52,0,0,0,17.5,54a27,27,0,0,1-6-3.23C10,49.65,8.42,48,9,46c1.13-3.82,6.06-5.4,9.57-4.47a1.5,1.5,0,0,0,.79-2.89Z"/><path class="cls-1" d="M36.78,45.87a30.23,30.23,0,0,0,3.92-5.66l-2.79-.76a109.78,109.78,0,0,1-.52,15.28c-.63,5.13-1.73,10.19-2.81,15.24-.41,1.88,2.48,2.68,2.89.79,1.11-5.15,2.19-10.32,2.86-15.55a109.14,109.14,0,0,0,.58-15.76,1.52,1.52,0,0,0-2.8-.76,26.49,26.49,0,0,1-3.46,5.06c-1.26,1.45.85,3.58,2.13,2.12Z"/><path class="cls-1" d="M33.6,73.39,34,73.3l.18,0c-.24,0,.2,0,.24,0l.33,0a10.71,10.71,0,0,1,1.39,0l.72.07c.1,0,.44,0,0,0l.33.05,1.44.25a1.62,1.62,0,0,0,1.16-.15,1.51,1.51,0,0,0-.36-2.74,16.1,16.1,0,0,0-6.66-.24,1.53,1.53,0,0,0-1,1.85,1.55,1.55,0,0,0,1.85,1Z"/><path class="cls-1" d="M48.79,70.73c-.08-.14-.06-.11,0,.1,0-.16,0-.12,0,.13,0-.17,0-.13,0,.11.08-.27,0-.13-.25.4l-.66.39h-.67l-.66-.38-.15-.2c-.09-.22-.12-.27-.08-.15s.05.17.07.25,0,.14,0,.21a1.15,1.15,0,0,1,.3-1l.66-.38.3,0,.76.21s.71,1,.46.5c-.07-.14,0,.27,0,.11a1,1,0,0,0,0-.25l0,.22c.05-.16,0-.11-.11.15a.56.56,0,0,1-.69.37.56.56,0,0,1-.78,0,.92.92,0,0,1-.46-.49c.08.18,0,0,0-.13,0,.11,0,.09,0-.07a1.06,1.06,0,0,1,.56-.85l.76-.21h-.06l.76.2a1,1,0,0,1,.44.55l0-.09a.61.61,0,0,1,0,.4c0-.13,0-.13,0,0s-.2.37-.45.48a1,1,0,0,1-1-.13c-.11-.1-.13-.11,0,0-.15-.21-.19-.25-.11-.12l-.09-.22s0,.1,0,.15,0-.4,0-.09.11-.3,0,0a.94.94,0,0,1,.67-.64q-.16,0,.06,0a.7.7,0,0,1,.38,0,1,1,0,0,1,.53.44c.09.24.11.29.06.14l0,.24a.83.83,0,0,1-.27.62c.11-.11.07-.08-.11.09l-.21.09c.15,0,.1,0-.17,0a.68.68,0,0,1-.34-.08,1,1,0,0,1-.5-1.18,1.53,1.53,0,0,0,1,1.84c.15,0,.1,0-.15-.07.13.08.09,0-.12-.11l.1.11c-.15-.21-.19-.25-.1-.12a2.12,2.12,0,0,0,.11.21c-.1-.24-.12-.28-.07-.14a1.42,1.42,0,0,1,0,.16,2,2,0,0,1,.13.63c0-.22,0-.24,0-.08s0,.15,0,.22v.22c0,.13,0,.14,0,0s0-.12,0,0a1.6,1.6,0,0,1,0,.21l0-.1c0,.06-.05.11-.08.16l-.08.11c-.06.09,0,0,.1-.13-.06,0-.19.2-.25.25l-.13.12.09-.07-.23.16-.63.37A1.5,1.5,0,1,0,49,77.15,6.88,6.88,0,0,0,50.68,76a3.72,3.72,0,0,0,1.07-2.47,5.85,5.85,0,0,0-.13-1.32,3.82,3.82,0,0,0-.2-.79,2.78,2.78,0,0,0-1.82-1.86l1,1.85a2.06,2.06,0,0,0-.91-2.21,2.28,2.28,0,0,0-2.22-.07A2.2,2.2,0,0,0,47,72.59a2.11,2.11,0,0,0,3.52-1A2.55,2.55,0,0,0,49,68.46a2.18,2.18,0,0,0-2.6,2.74,1.91,1.91,0,0,0,1.72,1.54,1.77,1.77,0,0,0,1.73-1.81,2.43,2.43,0,0,0-.71-1.76,1.89,1.89,0,0,0-2.56,0A2.58,2.58,0,0,0,46.94,73a1.67,1.67,0,0,0,2.41-1.13A3.11,3.11,0,0,0,49,69.7a1.66,1.66,0,0,0-1.8-.75A1.74,1.74,0,0,0,46,70.12a2.62,2.62,0,0,0,.25,2.13,1.5,1.5,0,0,0,2.59-1.52Z"/><path class="cls-1" d="M57.75,44.19c.66-3.31,6.36-5.14,8.39-2.08a11.84,11.84,0,0,1,1.42,5.76,32.19,32.19,0,0,1-.15,6.05,19,19,0,0,1-4.33,10.35,13.79,13.79,0,0,1-3.93,3.12c-.33.17-.66.33-1,.47a4,4,0,0,1-.83.27,5.9,5.9,0,0,0-.75.05l0,0c-.16-.13-.28,0-.34.45-.54.79-.29.27,0,.72a5,5,0,0,0,1.35,1,14.43,14.43,0,0,0,12.37,2.32,1.5,1.5,0,0,0-.8-2.89,10.89,10.89,0,0,1-7.91-.7A21.77,21.77,0,0,1,58.05,67c-1.06-.81-2.31-1.64-3.58-.69-2.18,1.64-.31,4.64,1.93,4.88s4.86-1.37,6.61-2.74a20.49,20.49,0,0,0,7.19-13,33.2,33.2,0,0,0,.29-8.45c-.23-2.51-.73-5.31-2.45-7.26C64.31,35.45,55.93,38,54.86,43.39c-.38,1.88,2.51,2.69,2.89.8Z"/><path class="cls-1" d="M76.86,69.49l0,0,.23.31,0-.05.15.36v0l0,.4a.2.2,0,0,1,0-.11l0,.39v0L77,71a.21.21,0,0,1,.06-.1l-.24.3,0,0-.3.23a.39.39,0,0,1,.11-.06l-.36.15a1.64,1.64,0,0,1,.38-.1l-.4.06a1.93,1.93,0,0,1,.48,0l-.4,0a1,1,0,0,1,.25.06l-.35-.15a.94.94,0,0,1,.22.12l-.31-.23.1.09-.24-.3a.41.41,0,0,1,.07.11L76,70.73a.5.5,0,0,1,0,.13l-.06-.4v.06l.06-.4,0,.06.15-.36,0,.06.24-.3,0,0,.31-.24,0,0,.36-.15a.19.19,0,0,1-.1,0l.4-.05h-.12l.4.05a.55.55,0,0,1-.17-.05l.36.16-.23-.14.3.24a1.06,1.06,0,0,1-.15-.15l.23.3a.63.63,0,0,1-.07-.12l.16.36a.56.56,0,0,1,0-.12l.06.4a.24.24,0,0,1,0-.12l-.06.39a.36.36,0,0,1,0-.11l-.15.36,0-.06-.23.31,0,0-.31.24a.26.26,0,0,1,.11-.07l-.36.15h.07l-.4,0a.66.66,0,0,1,.14,0l-.4,0,.14,0-.36-.15a1.18,1.18,0,0,1,.19.11L76.16,71l.15.14-.24-.3a.35.35,0,0,1,.07.12L76,70.56l0,.06,0-.4a.49.49,0,0,1,0,.12l.06-.4a.56.56,0,0,1,0,.12l.15-.36-.07.11.24-.31a.38.38,0,0,1-.09.09l.3-.23-.18.1.36-.15a1.41,1.41,0,0,1-.22.06l.4-.06a2.18,2.18,0,0,1-.51,0l.4.06-.11,0,.36.15,0,0,.3.24,0,0,.38.66v0l0,.4v-.06l-.06.4,0-.06-.15.36,0,0-.24.3a1.53,1.53,0,0,1,.18-.18l-.31.23.27-.16-.35.16a1.49,1.49,0,0,1,.3-.09l-.4.06a1.71,1.71,0,0,1,.32,0l-.4,0a1.05,1.05,0,0,1,.24.06l-.36-.15.22.13-.3-.24a1.67,1.67,0,0,1,.23.23l-.23-.3a2,2,0,0,1,.17.29l-.15-.36a2.44,2.44,0,0,1,.15.59l0-.4a3.62,3.62,0,0,1,0,.87l0-.4a4.43,4.43,0,0,1-.25,1l.15-.36a4.6,4.6,0,0,1-.53.91l.24-.3a5.62,5.62,0,0,1-.41.44,1.51,1.51,0,0,0,0,2.12,1.53,1.53,0,0,0,2.12,0,5.32,5.32,0,0,0,1.57-4.76,2.76,2.76,0,0,0-1.89-2.18,2.61,2.61,0,0,0-2.79.92,1.71,1.71,0,0,0-.33,1.48,1.69,1.69,0,0,0,1.13,1.16,2.89,2.89,0,0,0,1.57,0,2.13,2.13,0,0,0,1.48-1.46,2,2,0,0,0-.75-2,2,2,0,0,0-2.22-.24A1.92,1.92,0,0,0,75,70.63a2.15,2.15,0,0,0,3.43,1.09,1.87,1.87,0,0,0-.09-2.61,2.5,2.5,0,0,0-1.78-.68,2.75,2.75,0,0,0-1.68.5,1.8,1.8,0,0,0-.71,1.38,1.68,1.68,0,0,0,.53,1.3,1.61,1.61,0,0,0,1.06.44,1.5,1.5,0,0,0,1.06-.44,1.52,1.52,0,0,0,0-2.12Z"/><path class="cls-1" d="M86.7,40.83c.13-.94.28-2.26,1-2.93a3.91,3.91,0,0,1,3.1-.51,5.73,5.73,0,0,1,4.53,4.39c.51,2.1.48,5.06-1,6.8-1.67,2-4.67,2.07-7,2.17v3c2.15-.17,5,.19,6.1,2.29a11.08,11.08,0,0,1,.75,7,26.12,26.12,0,0,1-.81,3.39c-.28.94-.6,2-1.7,2.14a8,8,0,0,1-3.47-.67,3.71,3.71,0,0,1-2.36-1.6c-.86-1.73-3.45-.21-2.59,1.51,1.29,2.62,5.51,3.83,8.22,3.76,3.79-.1,4.8-3.76,5.44-6.87.69-3.31.78-6.89-.79-10s-5.48-4.22-8.79-4c-1.9.16-2,3.09,0,3,3.58-.15,7.54-.6,9.76-3.8,2-2.87,2-7.43.6-10.53a8.67,8.67,0,0,0-7.91-5.11A6,6,0,0,0,85.37,36c-1.18,1.31-1.44,3.11-1.67,4.79-.11.81.77,1.5,1.5,1.5a1.54,1.54,0,0,0,1.5-1.5Z"/><path class="cls-1" d="M99.51,72.55v-.06a1.27,1.27,0,0,0-.13-.58,1.24,1.24,0,0,0-.31-.48A1.72,1.72,0,0,0,98,71l-.4.05a1.47,1.47,0,0,0-.66.39l-.24.3a1.57,1.57,0,0,0-.2.76v.06a1.06,1.06,0,0,0,.13.58,1.34,1.34,0,0,0,.79.8,1.14,1.14,0,0,0,.58.12l.4,0a1.57,1.57,0,0,0,.66-.38l.23-.31a1.43,1.43,0,0,0,.21-.76Z"/><path class="cls-1" d="M103,74.17l.13-.07a1.12,1.12,0,0,0,.42-.39,1.14,1.14,0,0,0,.27-.51,1.08,1.08,0,0,0,0-.59,1.22,1.22,0,0,0-.17-.56l-.24-.31a1.57,1.57,0,0,0-.66-.38l-.4,0a1.47,1.47,0,0,0-.76.2l-.13.06a1.31,1.31,0,0,0-.42.39,1.13,1.13,0,0,0-.26.51,1,1,0,0,0,0,.6,1.16,1.16,0,0,0,.18.56l.23.3a1.49,1.49,0,0,0,.66.39l.4.05a1.57,1.57,0,0,0,.76-.2Z"/><path class="cls-1" d="M104.6,72.68v.13a1.06,1.06,0,0,0,.13.58,1.36,1.36,0,0,0,.79.79,1.06,1.06,0,0,0,.58.13l.4,0a1.49,1.49,0,0,0,.66-.39l.23-.3a1.48,1.48,0,0,0,.21-.76v-.13a1.11,1.11,0,0,0-.13-.57,1.21,1.21,0,0,0-.31-.49,1.24,1.24,0,0,0-.48-.31,1.29,1.29,0,0,0-.58-.13l-.4.06a1.45,1.45,0,0,0-.66.38l-.24.31a1.5,1.5,0,0,0-.2.75Z"/><path class="cls-1" d="M113.17,35.59c.57-1.43,3.65-.85,4.66-.48,2.2.8,2.65,2.92,2.67,5a9.32,9.32,0,0,1-1.84,6.35,19.81,19.81,0,0,1-4.92,3.8c-1,.62-1,2.5.36,2.74l6.56,1.16L120,51.69a15.31,15.31,0,0,1-5.57,4.05c-1.44.6-1.44,3,.4,2.95,4.65-.15,4.76,6.32,4.47,9.51-.16,1.69-.59,4.45-2.36,5.26s-4.52.74-6.54.64-1.93,2.9,0,3c2.68.14,6.37.2,8.67-1.42s3-4.87,3.23-7.48c.25-2.89.15-6.11-1.26-8.72a7,7,0,0,0-6.21-3.79l.4,2.94a18.45,18.45,0,0,0,6.89-4.81,1.52,1.52,0,0,0-.67-2.51l-6.55-1.16.36,2.74c2.53-1.57,5.19-3.29,6.74-5.92a14.17,14.17,0,0,0,1.24-9.52,7,7,0,0,0-6.09-5.58c-2.71-.42-5.76.13-6.88,2.93-.71,1.79,2.19,2.57,2.9.79Z"/></svg>